<?xml version="1.0" encoding="utf-8"?>
<!-- Generator: Adobe Illustrator 22.0.1, SVG Export Plug-In . SVG Version: 6.00 Build 0)  -->
<svg version="1.1" id="Layer_1" xmlns="http://www.w3.org/2000/svg" xmlns:xlink="http://www.w3.org/1999/xlink" x="0px" y="0px"
	 viewBox="0 0 1000 1000" enable-background="new 0 0 1000 1000" xml:space="preserve">
<g>
	<g>
		<g>
			<path fill="#21324C" d="M526.3,636.5c-3.7-6.1-13.7-11.9-25.3-11.9c-14.9,0-22.1,6.2-22.1,14.1c0,9.3,11,11.9,23.7,13.4
				c22.2,2.7,42.9,8.5,42.9,33.9c0,23.7-21,33.9-44.7,33.9c-21.8,0-38.5-6.7-46.4-26.2l16.7-8.7c4.7,11.7,17,16.9,30,16.9
				c12.6,0,24.5-4.4,24.5-16c0-10-10.5-14.1-24.6-15.7c-21.8-2.6-41.8-8.4-41.8-32.3c0-21.9,21.6-30.9,41.2-31
				c16.6,0,33.8,4.7,41.8,21.1L526.3,636.5z"/>
			<path fill="#21324C" d="M619.2,629h-33.8v-18.3c30.7,0,56.7,0,87.6,0V629h-33.8v88.2h-20.1V629z"/>
			<path fill="#21324C" d="M791.2,697.2h-55.7l-9.1,20.1h-21.8l47.8-106.5h21.9l47.8,106.5h-21.9L791.2,697.2z M763.4,633.1
				l-19.8,45.3h39.6L763.4,633.1z"/>
			<path fill="#21324C" d="M956,717.3h-23.9l-31-35.6h-19.3v35.6h-20.1V610.6c16.9,0,33.8,0.2,50.7,0.2
				c25.1,0.2,38.3,16.9,38.3,35.3c0,14.6-6.7,29.4-26.9,33.5l32.3,36.4V717.3z M881.8,629.5v34.1h30.6c12.8,0,18.3-8.5,18.3-17
				s-5.6-17-18.3-17H881.8z"/>
		</g>
		<g>
			<path fill="#4897F7" d="M629.9,471.1c-1,3.8-2.1,7.5-3.5,11.1c-19.4,53-75.1,90.3-131.4,88.2s-109.1-43.5-124.5-97.7
				c-20.2-70.9,24.7-149.7,96.5-166.8c39.7-9.5,83.9-1.3,116.2,24.1C624.4,362.3,643.2,420.5,629.9,471.1z"/>
			<g>
				<polygon fill="#DFDF00" points="500,328.4 500,328.4 500,328.3 467.3,399.1 389.8,408.3 447.1,461.3 431.9,537.9 500,499.7 
					500,499.7 500,499.7 500,499.7 500,328.4 				"/>
				<polygon fill="#DD9E00" points="500,499.7 500,499.7 568.1,537.9 552.9,461.3 610.2,408.3 532.7,399.1 500,328.3 500,328.4 
					500,328.4 500,328.4 500,499.7 500,499.7 				"/>
			</g>
			<g>
				<polygon fill="#21324C" points="345.9,408.8 326.8,387.3 353.9,384.7 381,303.2 418.7,315.7 424.5,298.3 369.4,280 340.3,367.6 
					289,372.3 325.2,413.1 297.5,496.5 352.5,514.8 358.3,497.4 320.7,484.9 				"/>
				<polygon fill="#21324C" points="711,372.3 659.7,367.6 630.6,280 575.5,298.3 581.3,315.7 619,303.2 646.1,384.7 673.2,387.3 
					654.1,408.8 679.3,484.9 641.7,497.4 647.5,514.8 702.5,496.5 674.8,413.1 				"/>
				<path fill="#21324C" d="M568.5,464.7l74.2-68.6l-100.3-11.9L500,292.5v0l0,0l0,0v0l-42.3,91.7l-100.3,11.9l74.2,68.6l-19.7,99.1
					l88.2-49.4l88.2,49.4L568.5,464.7z M500,493.4L500,493.4L500,493.4L500,493.4L500,493.4L500,493.4L500,493.4l-62.4,34.9
					l13.9-70.2L399,409.6l71-8.4l29.9-64.9l0,0v0l0,0l0,0v0l0,0l29.9,64.9l71,8.4l-52.5,48.6l13.9,70.2L500,493.4z"/>
			</g>
		</g>
	</g>
	<path fill="#4897F7" d="M94.2,685.9H64.1v31.3H44V610.8c16.7,0,33.5-0.1,50.2-0.1C146.2,610.6,146.4,685.9,94.2,685.9z M64.1,667.5
		h30.1c25.7,0,25.6-37.7,0-37.7H64.1V667.5z"/>
	<path fill="#4897F7" d="M269,717.3h-23.9l-31-35.6h-19.3v35.6h-20.1V610.6c16.9,0,33.8,0.1,50.7,0.1c25.1,0.1,38.3,16.9,38.3,35.3
		c0,14.6-6.7,29.4-26.9,33.5l32.2,36.4V717.3z M194.7,629.5v34.1h30.6c12.8,0,18.2-8.5,18.2-17c0-8.5-5.6-17-18.2-17H194.7z"/>
	<path fill="#4897F7" d="M389.7,697.2H334l-9.1,20.1h-21.8l47.8-106.5h21.9l47.8,106.5h-21.9L389.7,697.2z M361.8,633.1l-19.8,45.3
		h39.6L361.8,633.1z"/>
</g>
</svg>
