<?xml version="1.0" encoding="utf-8"?>
<!-- Generator: Adobe Illustrator 22.0.1, SVG Export Plug-In . SVG Version: 6.00 Build 0)  -->
<svg version="1.1" id="Layer_1" xmlns="http://www.w3.org/2000/svg" xmlns:xlink="http://www.w3.org/1999/xlink" x="0px" y="0px"
	 viewBox="0 0 1000 1000" enable-background="new 0 0 1000 1000" xml:space="preserve">
<g>
	<g>
		<path fill="#21324C" d="M188,727.4c-6.4-10.6-23.9-20.7-44-20.7c-26,0-38.5,10.9-38.5,24.7c0,16.2,19.1,20.7,41.4,23.3
			c38.7,4.8,74.8,14.9,74.8,59.2c0,41.4-36.6,59.2-78,59.2c-37.9,0-67.1-11.7-80.9-45.6L92,812.3c8.2,20.4,29.7,29.4,52.3,29.4
			c22,0,42.7-7.7,42.7-27.9c0-17.5-18.3-24.7-43-27.3c-37.9-4.5-73-14.6-73-56.2c0-38.2,37.7-53.9,71.9-54.1
			c28.9,0,58.9,8.2,73,36.9L188,727.4z"/>
		<path fill="#21324C" d="M349.8,714.4H291v-31.8c53.6,0,99,0,152.8,0v31.8h-58.9v153.9h-35V714.4z"/>
		<path fill="#21324C" d="M649.9,833.2h-97.1l-15.9,35h-37.9l83.3-185.7h38.2l83.3,185.7h-38.2L649.9,833.2z M601.3,721.5
			l-34.5,79.1h69L601.3,721.5z"/>
		<path fill="#21324C" d="M937.2,868.2h-41.6l-54.1-62.1h-33.7v62.1h-35v-186c29.4,0,58.9,0.3,88.3,0.3
			c43.8,0.3,66.9,29.4,66.9,61.5c0,25.5-11.7,51.2-47,58.4l56.2,63.4V868.2z M807.8,715.2v59.4h53.3c22.3,0,31.8-14.9,31.8-29.7
			c0-14.9-9.8-29.7-31.8-29.7H807.8z"/>
	</g>
	<g>
		<path fill="#4897F7" d="M710.7,449.4C691,518,638.9,577.9,571.7,603c-89.2,33.4-198.3,3.2-257.6-71.4
			c-79.2-99.5-57.6-254.6,47.4-326.5c55-37.7,126.6-52,191.2-34.1c91.8,25.4,162.2,114,166.4,209.1
			C720.2,403.5,717.2,426.9,710.7,449.4z"/>
		<g>
			<polygon fill="#DFDF00" points="492,208.7 492,208.7 492,208.6 436.8,328.1 306,343.6 402.7,433.1 377.1,562.3 492,498 492,498 
				492,498 492,498 492,208.7 			"/>
			<polygon fill="#DD9E00" points="492,498 492,498 607,562.3 581.3,433.1 678.1,343.6 547.2,328.1 492.1,208.6 492,208.7 
				492,208.7 492,208.7 492,498 492,498 			"/>
		</g>
		<g>
			<polygon fill="#21324C" points="231.9,344.4 199.6,308.1 245.4,303.8 291.1,166.2 354.7,187.3 364.5,157.9 271.5,127 
				222.4,274.9 135.9,282.9 196.9,351.6 150.1,492.6 243,523.5 252.8,494.1 189.2,473 			"/>
			<polygon fill="#21324C" points="848.2,282.9 761.7,274.9 712.6,127 619.6,157.9 629.4,187.3 692.9,166.2 738.7,303.8 
				784.4,308.1 752.1,344.4 794.8,473 731.3,494.1 741,523.5 834,492.6 787.2,351.6 			"/>
			<path fill="#21324C" d="M607.7,438.9L732.9,323L563.5,303L492,148.1v0l0,0l0,0v0L420.6,303L251.2,323l125.2,115.8l-33.2,167.3
				L492,522.9l148.9,83.3L607.7,438.9z M492,487.4L492,487.4L492,487.4L492,487.4L492,487.4L492,487.4L492,487.4l-105.4,59
				l23.5-118.5l-88.7-82l119.9-14.2L492,222.1l0,0.1v0l0,0l0,0v0l0-0.1l50.6,109.6l119.9,14.2l-88.7,82l23.5,118.5L492,487.4z"/>
		</g>
	</g>
</g>
</svg>
